<svg xmlns="http://www.w3.org/2000/svg" width="1024" height="1024" viewBox="0 0 1024 1024" role="img" aria-label="Dikri logo">
  <rect width="1024" height="1024" fill="#FCF6EE"/>
  <path d="M285 315 C285 205 405 120 512 70 C619 120 739 205 739 315" fill="none" stroke="#BFD0AB" stroke-width="6" stroke-linecap="round"/>
  <path d="M330 344 C330 255 426 186 512 145 C598 186 694 255 694 344" fill="none" stroke="#DCE6C8" stroke-width="2.5" opacity="0.55"/>
  <path d="M512 130 C447 147 399 201 376 246 C359 280 351 318 352 372" fill="none" stroke="#EFF2E3" stroke-width="3" opacity="0.9"/>
  <path d="M512 130 C577 147 625 201 648 246 C665 280 673 318 672 372" fill="none" stroke="#EFF2E3" stroke-width="3" opacity="0.9"/>
  <g fill="#0E5A3B">
    <path d="M162 736 L214 736 L214 676 L282 614 L282 736 L335 736 L335 470 L282 526 L282 620 L214 620 L214 526 L162 580 Z"/>
    <path d="M339 736 L398 736 L398 626 L516 626 C556 626 584 612 584 582 C584 548 554 538 512 538 L398 538 L398 470 L512 470 L606 470 L606 416 L512 416 C430 416 346 454 346 540 C346 581 366 611 402 630 L339 630 Z"/>
    <path d="M606 736 L665 736 L665 686 L867 686 L867 630 L665 630 L665 590 L860 590 L860 536 L665 536 L665 470 L606 470 Z"/>
  </g>
  <path d="M724 370 C740 335 769 309 805 300 C803 338 792 373 769 399 C744 402 724 392 724 370 Z" fill="#7FA85A"/>
  <path d="M742 410 C776 402 806 409 835 428 C808 453 778 466 742 470 C734 447 734 427 742 410 Z" fill="#6F9951"/>
  <path d="M768 342 C786 337 808 338 826 346 C813 367 794 379 772 382 C766 369 765 355 768 342 Z" fill="#95BF6C"/>
  <path d="M787 390 C812 384 835 385 854 393 C842 413 825 424 803 427 C793 417 789 404 787 390 Z" fill="#86AE62"/>
  <circle cx="826" cy="485" r="16" fill="#0E5A3B"/>
  <text x="512" y="806" text-anchor="middle" direction="ltr" font-family="Arial, Helvetica, sans-serif" font-size="54" letter-spacing="12" fill="#0E5A3B">DIKRI</text>
  <line x1="312" y1="860" x2="443" y2="860" stroke="#A8BE87" stroke-width="4"/>
  <line x1="581" y1="860" x2="712" y2="860" stroke="#A8BE87" stroke-width="4"/>
  <rect x="502" y="850" width="20" height="20" transform="rotate(45 512 860)" fill="#A8BE87"/>
</svg>
